<svg xmlns="http://www.w3.org/2000/svg" version="1.1" xmlns:xlink="http://www.w3.org/1999/xlink" xmlns:svgjs="http://svgjs.dev/svgjs" width="2000" height="2084" viewBox="0 0 2000 2084"><g transform="matrix(1,0,0,1,-2.0543491482370655,-3.359738566267197)"><svg viewBox="0 0 238 248" data-background-color="#ffffff" preserveAspectRatio="xMidYMid meet" height="2084" width="2000" xmlns="http://www.w3.org/2000/svg" xmlns:xlink="http://www.w3.org/1999/xlink"><g id="tight-bounds" transform="matrix(1,0,0,1,0.2446753746593231,0.400026344207987)"><svg viewBox="0 0 237.5108570767004 247.2" height="247.2" width="237.5108570767004"><g><svg viewBox="0 0 237.51085707670043 247.20000000000002" height="247.2" width="237.5108570767004"><g><svg viewBox="0 0 237.51085707670043 247.20000000000002" height="247.20000000000002" width="237.51085707670043"><g id="textblocktransform"><svg viewBox="0 0 237.51085707670043 247.20000000000002" height="247.20000000000002" width="237.51085707670043" id="textblock"><g><svg viewBox="0 0 237.51085707670043 247.20000000000002" height="247.20000000000002" width="237.51085707670043"><path d="M236.955 53.02C235.838 27.36 232.656 20.227 232.656 20.227 222.886-6.202 210.693-0.506 199.739 3.292 180.4 3.446 161.138 9.091 141.844 12.119 101.345 12.581 60.5 4.986 20.202 23.717 16.417 29.464-3.927 24.846 0.673 56.304 1.879 69.39 6.279 83.913 6.145 95.922 6.748 98.026 7.585 93.202 7.942 96.23 9.193 104.39 11.236 100.541 12.911 105.365 10.577 118.246 12.252 128.971 13.849 140.21 11.035 143.135 7.429 141.749 5.81 151.449 5.642 158.479 4.738 157.145 3.744 156.837 3.018 156.632 1.555 157.402 1.801 159.608 2.638 167.152-0.957 171.514 1.299 178.904-0.253 186.91 2.371 193.838 2.013 202.511 1.969 204.255 2.214 205.744 2.605 206.154 4.336 208.361 1.812 212.672 2.08 217.342 19.834 249.262 39.095 227.195 57.284 241.872 62.008 231.608 58.457 245.516 60.344 243.36 61.818 240.846 62.89 251.263 64.553 245.362 64.81 243.668 64.419 239.665 65.335 240.435 65.815 240.846 66.239 240.743 66.306 238.382 66.407 234.841 65.525 237.048 65.29 235.201 67.825 225.861 67.2 248.081 69.578 247.158 69.466 244.438 68.774 240.538 70.192 241.051 71.599 237.151 71.644 233.918 72.894 242.693 72.939 244.592 73.162 245.926 73.52 246.85 77.428 237.305 81.313 250.237 85.411 245.926 87.924 241.205 90.335 248.492 92.881 246.696 93.775 245.259 94.679 242.693 95.539 247.004 106.068 247.928 117.29 244.079 127.272 247.158 153.948 241.41 182.454 249.518 210.581 241.923 217.213 238.998 224.103 234.841 230.568 231.506 230.568 231.506 235.805 222.371 235.805 181.316S236.921 145.393 237.089 112.703C237.256 80.013 238.038 78.679 236.921 53.02Z" opacity="1" fill="#000000" data-fill-palette-color="tertiary"></path><g transform="matrix(1,0,0,1,55.76832,26.230666666666668)"><svg width="125.97421707670043" viewBox="3 -34.55 22.35 34.55" height="194.7386666666667" data-palette-color="#ffffff"><path d="M25.35 0L18.5 0 12.4-13.95 11.8-13.95 9.35-13.95 9.35 0 3 0 3-34.55 11.15-34.55Q23.65-34.55 23.65-24.4L23.65-24.4Q23.65-21.25 22.25-18.82 20.85-16.4 18.05-15.15L18.05-15.15 25.35 0ZM11.45-18.55Q14.4-18.55 15.73-19.95 17.05-21.35 17.05-24.4L17.05-24.4Q17.05-27.25 15.68-28.58 14.3-29.9 11.15-29.9L11.15-29.9 9.35-29.9 9.35-18.55 11.45-18.55Z" opacity="1" transform="matrix(1,0,0,1,0,0)" fill="#ffffff" class="wordmark-text-0" data-fill-palette-color="quaternary" id="text-0"></path></svg></g></svg></g></svg></g></svg></g><g></g></svg></g><defs></defs></svg><rect width="237.5108570767004" height="247.2" fill="none" stroke="none" visibility="hidden"></rect></g></svg></g></svg>